ModelForces
version=1
nRows=10
nColumns=52
inDegrees=no

This file contains the forces exerted on a model during a simulation.

A force is a generalized force, meaning that it can be either a force (N) or a torque (Nm).

Units are S.I. units (second, meters, Newtons, ...)
Angles are in degrees.

endheader
time	contactForce_femur_lat_meniscii_l.femur_lat_l.force.X	contactForce_femur_lat_meniscii_l.femur_lat_l.force.Y	contactForce_femur_lat_meniscii_l.femur_lat_l.force.Z	contactForce_femur_lat_meniscii_l.femur_lat_l.torque.X	contactForce_femur_lat_meniscii_l.femur_lat_l.torque.Y	contactForce_femur_lat_meniscii_l.femur_lat_l.torque.Z	contactForce_femur_lat_meniscii_l.meniscus_lat_l.force.X	contactForce_femur_lat_meniscii_l.meniscus_lat_l.force.Y	contactForce_femur_lat_meniscii_l.meniscus_lat_l.force.Z	contactForce_femur_lat_meniscii_l.meniscus_lat_l.torque.X	contactForce_femur_lat_meniscii_l.meniscus_lat_l.torque.Y	contactForce_femur_lat_meniscii_l.meniscus_lat_l.torque.Z	contactForce_femur_med_meniscii_l.femur_med_l.force.X	contactForce_femur_med_meniscii_l.femur_med_l.force.Y	contactForce_femur_med_meniscii_l.femur_med_l.force.Z	contactForce_femur_med_meniscii_l.femur_med_l.torque.X	contactForce_femur_med_meniscii_l.femur_med_l.torque.Y	contactForce_femur_med_meniscii_l.femur_med_l.torque.Z	contactForce_femur_med_meniscii_l.meniscus_med_l.force.X	contactForce_femur_med_meniscii_l.meniscus_med_l.force.Y	contactForce_femur_med_meniscii_l.meniscus_med_l.force.Z	contactForce_femur_med_meniscii_l.meniscus_med_l.torque.X	contactForce_femur_med_meniscii_l.meniscus_med_l.torque.Y	contactForce_femur_med_meniscii_l.meniscus_med_l.torque.Z	contactForce_femur_lat_meniscii_r.femur_lat_r.force.X	contactForce_femur_lat_meniscii_r.femur_lat_r.force.Y	contactForce_femur_lat_meniscii_r.femur_lat_r.force.Z	contactForce_femur_lat_meniscii_r.femur_lat_r.torque.X	contactForce_femur_lat_meniscii_r.femur_lat_r.torque.Y	contactForce_femur_lat_meniscii_r.femur_lat_r.torque.Z	contactForce_femur_lat_meniscii_r.meniscus_lat_r.force.X	contactForce_femur_lat_meniscii_r.meniscus_lat_r.force.Y	contactForce_femur_lat_meniscii_r.meniscus_lat_r.force.Z	contactForce_femur_lat_meniscii_r.meniscus_lat_r.torque.X	contactForce_femur_lat_meniscii_r.meniscus_lat_r.torque.Y	contactForce_femur_lat_meniscii_r.meniscus_lat_r.torque.Z	contactForce_femur_med_meniscii_r.femur_med_r.force.X	contactForce_femur_med_meniscii_r.femur_med_r.force.Y	contactForce_femur_med_meniscii_r.femur_med_r.force.Z	contactForce_femur_med_meniscii_r.femur_med_r.torque.X	contactForce_femur_med_meniscii_r.femur_med_r.torque.Y	contactForce_femur_med_meniscii_r.femur_med_r.torque.Z	contactForce_femur_med_meniscii_r.meniscus_med_r.force.X	contactForce_femur_med_meniscii_r.meniscus_med_r.force.Y	contactForce_femur_med_meniscii_r.meniscus_med_r.force.Z	contactForce_femur_med_meniscii_r.meniscus_med_r.torque.X	contactForce_femur_med_meniscii_r.meniscus_med_r.torque.Y	contactForce_femur_med_meniscii_r.meniscus_med_r.torque.Z	ground_prescribedForce_fx	ground_prescribedForce_fy	ground_prescribedForce_fz
      0.68370165	      0.00000000	      0.00000000	      0.00000000	      0.00000000	      0.00000000	      0.00000000	      0.00000000	      0.00000000	      0.00000000	      0.00000000	      0.00000000	      0.00000000	      0.00000000	      0.00000000	      0.00000000	      0.00000000	      0.00000000	      0.00000000	      0.00000000	      0.00000000	      0.00000000	      0.00000000	      0.00000000	      0.00000000	     23.79230446	      6.28276067	      1.82670441	     -0.90132094	      0.59755996	      9.69188955	    -23.79230446	     -6.28276067	     -1.82670441	      0.22800189	     -0.78912908	     -0.26321864	     17.06889782	      2.57373565	     -0.63076429	      0.30345675	     -0.31684758	      6.91976173	    -17.06889782	     -2.57373565	      0.63076429	     -0.04033515	      0.21975338	     -0.19569541	     34.18508270	      6.83701654	      0.00000000
      0.69524184	      0.00000000	      0.00000000	      0.00000000	      0.00000000	      0.00000000	      0.00000000	      0.00000000	      0.00000000	      0.00000000	      0.00000000	      0.00000000	      0.00000000	      0.00000000	      0.00000000	      0.00000000	      0.00000000	      0.00000000	      0.00000000	      0.00000000	      0.00000000	      0.00000000	      0.00000000	      0.00000000	      0.00000000	     17.89031764	      4.31795503	      1.39047127	     -0.67411113	      0.44833637	      7.28533174	    -17.89031764	     -4.31795503	     -1.39047127	      0.15847335	     -0.59223614	     -0.20408055	     13.91937795	      2.00695896	     -0.55370409	      0.26192803	     -0.25940089	      5.64342742	    -13.91937795	     -2.00695896	      0.55370409	     -0.03261944	      0.18131541	     -0.16194633	     34.76209216	      6.95241843	      0.00000000
      0.70678203	      0.00000000	      0.00000000	      0.00000000	      0.00000000	      0.00000000	      0.00000000	      0.00000000	      0.00000000	      0.00000000	      0.00000000	      0.00000000	      0.00000000	      0.00000000	      0.00000000	      0.00000000	      0.00000000	      0.00000000	      0.00000000	      0.00000000	      0.00000000	      0.00000000	      0.00000000	      0.00000000	      0.00000000	     17.13327675	      4.04229029	      1.06562826	     -0.53416242	      0.42594078	      6.97681477	    -17.13327675	     -4.04229029	     -1.06562826	      0.14366353	     -0.55804969	     -0.19720097	     13.66771561	      2.07056746	     -0.59476611	      0.27982232	     -0.25547902	      5.54008085	    -13.66771561	     -2.07056746	      0.59476611	     -0.03407874	      0.17999751	     -0.15567216	     35.33910163	      7.06782033	      0.00000000
      0.71976084	      0.00000000	      0.00000000	      0.00000000	      0.00000000	      0.00000000	      0.00000000	      0.00000000	      0.00000000	      0.00000000	      0.00000000	      0.00000000	      0.00000000	      0.00000000	      0.00000000	      0.00000000	      0.00000000	      0.00000000	      0.00000000	      0.00000000	      0.00000000	      0.00000000	      0.00000000	      0.00000000	      0.00000000	     22.91820123	      5.89588373	      1.61906246	     -0.80613338	      0.57232152	      9.33501012	    -22.91820123	     -5.89588373	     -1.61906246	      0.21121277	     -0.75286642	     -0.25631023	     17.39102496	      2.72427055	     -0.72900740	      0.34620614	     -0.32421825	      7.04909320	    -17.39102496	     -2.72427055	      0.72900740	     -0.04385431	      0.22788554	     -0.19625193	     35.98804204	      7.19760841	      0.00000000
      0.73273965	      0.00000000	      0.00000000	      0.00000000	      0.00000000	      0.00000000	      0.00000000	      0.00000000	      0.00000000	      0.00000000	      0.00000000	      0.00000000	      0.00000000	      0.00000000	      0.00000000	      0.00000000	      0.00000000	      0.00000000	      0.00000000	      0.00000000	      0.00000000	      0.00000000	      0.00000000	      0.00000000	      0.00000000	     20.02699272	      4.99293344	      1.59261512	     -0.77308753	      0.50136808	      8.15595684	    -20.02699272	     -4.99293344	     -1.59261512	      0.18257964	     -0.66219950	     -0.22615786	     16.57515053	      2.51057938	     -0.72293398	      0.33989239	     -0.30971341	      6.71920305	    -16.57515053	     -2.51057938	      0.72293398	     -0.04136464	      0.21896074	     -0.18983691	     36.63698245	      7.32739649	      0.00000000
      0.74571846	      0.00000000	      0.00000000	      0.00000000	      0.00000000	      0.00000000	      0.00000000	      0.00000000	      0.00000000	      0.00000000	      0.00000000	      0.00000000	      0.00000000	      0.00000000	      0.00000000	      0.00000000	      0.00000000	      0.00000000	      0.00000000	      0.00000000	      0.00000000	      0.00000000	      0.00000000	      0.00000000	      0.00000000	     17.64813129	      4.24033399	      1.21791994	     -0.60115019	      0.43919417	      7.18664914	    -17.64813129	     -4.24033399	     -1.21791994	      0.15217051	     -0.57659926	     -0.20236751	     16.12900763	      2.49742434	     -0.75999156	      0.35482418	     -0.30240113	      6.53747763	    -16.12900763	     -2.49742434	      0.75999156	     -0.04196944	      0.21565065	     -0.18295477	     37.28592286	      7.45718457	      0.00000000
      0.75849271	      0.00000000	      0.00000000	      0.00000000	      0.00000000	      0.00000000	      0.00000000	      0.00000000	      0.00000000	      0.00000000	      0.00000000	      0.00000000	      0.00000000	      0.00000000	      0.00000000	      0.00000000	      0.00000000	      0.00000000	      0.00000000	      0.00000000	      0.00000000	      0.00000000	      0.00000000	      0.00000000	      0.00000000	     20.86878813	      5.31648249	      1.48934762	     -0.73861428	      0.52011579	      8.49979816	    -20.86878813	     -5.31648249	     -1.48934762	      0.19032579	     -0.68319859	     -0.23500962	     19.24026735	      3.01573442	     -0.89738376	      0.42024569	     -0.36064446	      7.79874296	    -19.24026735	     -3.01573442	      0.89738376	     -0.05050572	      0.25747005	     -0.21809616	     37.92463574	      7.58492715	      0.00000000
      0.77126697	      0.00000000	      0.00000000	      0.00000000	      0.00000000	      0.00000000	      0.00000000	      0.00000000	      0.00000000	      0.00000000	      0.00000000	      0.00000000	      0.00000000	      0.00000000	      0.00000000	      0.00000000	      0.00000000	      0.00000000	      0.00000000	      0.00000000	      0.00000000	      0.00000000	      0.00000000	      0.00000000	      0.00000000	     19.53189431	      4.97589157	      1.57336888	     -0.76471909	      0.48840757	      7.95461778	    -19.53189431	     -4.97589157	     -1.57336888	      0.18130373	     -0.64408269	     -0.21973127	     19.87971028	      3.07252583	     -0.93712589	      0.43758897	     -0.37317426	      8.05848115	    -19.87971028	     -3.07252583	      0.93712589	     -0.05209042	      0.26747952	     -0.22724997	     38.56334862	      7.71266972	      0.00000000
      0.78404123	      0.00000000	      0.00000000	      0.00000000	      0.00000000	      0.00000000	      0.00000000	      0.00000000	      0.00000000	      0.00000000	      0.00000000	      0.00000000	      0.00000000	      0.00000000	      0.00000000	      0.00000000	      0.00000000	      0.00000000	      0.00000000	      0.00000000	      0.00000000	      0.00000000	      0.00000000	      0.00000000	      0.00000000	     16.95056212	      4.22072867	      1.26058133	     -0.61816242	      0.42235882	      6.90286716	    -16.95056212	     -4.22072867	     -1.26058133	      0.15208414	     -0.55466815	     -0.19268476	     19.82120995	      3.08415641	     -0.96967754	      0.45103957	     -0.37299976	      8.03432598	    -19.82120995	     -3.08415641	      0.96967754	     -0.05287614	      0.26901698	     -0.22618206	     39.20206150	      7.84041230	      0.00000000
      0.79730025	      0.00000000	      0.00000000	      0.00000000	      0.00000000	      0.00000000	      0.00000000	      0.00000000	      0.00000000	      0.00000000	      0.00000000	      0.00000000	      0.00000000	      0.00000000	      0.00000000	      0.00000000	      0.00000000	      0.00000000	      0.00000000	      0.00000000	      0.00000000	      0.00000000	      0.00000000	      0.00000000	      0.00000000	     18.27342010	      4.74237515	      1.35025850	     -0.66769194	      0.45534397	      7.44266862	    -18.27342010	     -4.74237515	     -1.35025850	      0.16973526	     -0.59724507	     -0.20529910	     22.59852953	      3.60231607	     -1.09800785	      0.51293701	     -0.42599068	      9.15976434	    -22.59852953	     -3.60231607	      1.09800785	     -0.06154648	      0.30805566	     -0.25643727	     39.86501230	      7.97300246	      0.00000000
